# xmcd
#
# Track frame offsets: 
#        150
#        17035
#        32598
#        47456
#        67231
#        84955
#        107144
#        122454
#        136810
#        165208
#        181825
#        195835
#        214621
#        232531
#        246937
#        260743
#        274826
#        300934
#        311847
#
# Disc length: 4349 seconds
#
# Revision: 2
# Processed by: cddbd v1.5.2PL0 Copyright (c) Steve Scherf et al.
# Submitted via: ExactAudioCopy v0.99pb4
#
DISCID=eb10fb13
DTITLE=Bobby Charles - Last Train To Memphis (Bouns CD)
DYEAR=2004
DGENRE=Blues
TTITLE0=I Can't Quit You
TTITLE1=Secrets
TTITLE2=Angel Eyes
TTITLE3=But I Do
TTITLE4=Party Town
TTITLE5=I Don't Want To Know
TTITLE6=Love In The Worst Degree
TTITLE7=Why Are People Like That?
TTITLE8=I Believe In Angels
TTITLE9=Les Champs Élysee
TTITLE10=Not Ready Yet
TTITLE11=The Jealous Kind
TTITLE12=I Want To Be The One
TTITLE13=Walking To New Orleans
TTITLE14=I Remember When
TTITLE15=Ambushin' Bastard
TTITLE16=I Don't See Me
TTITLE17=Wish You Were Here Right Now
TTITLE18=Clean Water
EXTD=\n\n
EXTT0=
EXTT1=
EXTT2=
EXTT3=
EXTT4=
EXTT5=
EXTT6=
EXTT7=
EXTT8=
EXTT9=
EXTT10=
EXTT11=
EXTT12=
EXTT13=
EXTT14=
EXTT15=
EXTT16=
EXTT17=
EXTT18=
PLAYORDER=
